<svg width="24" height="24" viewBox="0 0 24 24" fill="none" xmlns="http://www.w3.org/2000/svg">
<g id="Checkbox">
<path id="Subtract" fill-rule="evenodd" clip-rule="evenodd" d="M6 2C3.79086 2 2 3.79086 2 6V18C2 20.2091 3.79086 22 6 22H18C20.2091 22 22 20.2091 22 18V6C22 3.79086 20.2091 2 18 2H6ZM16.6753 10.7376C17.0826 10.3647 17.1105 9.73211 16.7376 9.32475C16.3647 8.91739 15.7321 8.88948 15.3247 9.26241L10.5654 13.6196L8.7035 11.7766C8.31099 11.3881 7.67783 11.3913 7.2893 11.7838C6.90077 12.1763 6.904 12.8095 7.29651 13.198L9.83495 15.7107C10.2139 16.0858 10.8204 16.0976 11.2137 15.7376L16.6753 10.7376Z" fill="#1FC76A"/>
</g>
</svg>
